# This file uses centimeters as units for non-parametric coordinates.

mtllib ButtonTex.mtl
g default
v 0.951057 0.000000 -0.309017
v 0.809018 0.000000 -0.587786
v 0.587786 0.000000 -0.809017
v 0.309017 0.000000 -0.951057
v 0.000000 0.000000 -1.000000
v -0.309017 0.000000 -0.951057
v -0.587785 0.000000 -0.809017
v -0.809017 0.000000 -0.587785
v -0.951057 0.000000 -0.309017
v -1.000000 0.000000 0.000000
v -0.951057 0.000000 0.309017
v -0.809017 0.000000 0.587785
v -0.587785 0.000000 0.809017
v -0.309017 0.000000 0.951057
v -0.000000 0.000000 1.000000
v 0.309017 0.000000 0.951057
v 0.587785 0.000000 0.809017
v 0.809017 0.000000 0.587785
v 0.951057 0.000000 0.309017
v 1.000000 0.000000 0.000000
v 0.824878 0.378720 -0.268019
v 0.701683 0.378720 -0.509803
v 0.509803 0.378720 -0.701683
v 0.268019 0.378720 -0.824878
v -0.000000 0.378720 -0.867327
v -0.268019 0.378720 -0.824878
v -0.509803 0.378720 -0.701683
v -0.701683 0.378720 -0.509803
v -0.824878 0.378720 -0.268019
v -0.867327 0.378720 -0.000000
v -0.824878 0.378720 0.268019
v -0.701683 0.378720 0.509802
v -0.509803 0.378720 0.701683
v -0.268019 0.378720 0.824878
v -0.000000 0.378720 0.867327
v 0.268019 0.378720 0.824878
v 0.509802 0.378720 0.701683
v 0.701683 0.378720 0.509802
v 0.824878 0.378720 0.268019
v 0.867327 0.378720 -0.000000
v 0.576339 0.420856 -0.187263
v 0.490263 0.420856 -0.356196
v -0.000000 0.418817 -0.000000
v 0.356196 0.420856 -0.490263
v 0.187263 0.420856 -0.576338
v -0.000000 0.420856 -0.605997
v -0.187263 0.420856 -0.576338
v -0.356196 0.420856 -0.490263
v -0.490263 0.420856 -0.356196
v -0.576338 0.420856 -0.187263
v -0.605997 0.420856 -0.000000
v -0.576338 0.420856 0.187263
v -0.490263 0.420856 0.356196
v -0.356196 0.420856 0.490262
v -0.187263 0.420856 0.576338
v -0.000000 0.420856 0.605997
v 0.187263 0.420856 0.576338
v 0.356196 0.420856 0.490262
v 0.490263 0.420856 0.356196
v 0.576337 0.420856 0.187263
v 0.605997 0.420856 -0.000000
v 0.972986 0.166051 0.316142
v 0.827672 0.166051 0.601339
v 0.601339 0.166051 0.827672
v 0.316142 0.166051 0.972986
v -0.000000 0.166051 1.023059
v -0.316142 0.166051 0.972987
v -0.601339 0.166051 0.827672
v -0.827672 0.166051 0.601339
v -0.972987 0.166051 0.316142
v -1.023059 0.166051 0.000000
v -0.972987 0.166051 -0.316142
v -0.827672 0.166051 -0.601339
v -0.601339 0.166051 -0.827672
v -0.316143 0.166051 -0.972987
v 0.000000 0.166051 -1.023059
v 0.316143 0.166051 -0.972987
v 0.601339 0.166051 -0.827672
v 0.827672 0.166051 -0.601339
v 0.972987 0.166051 -0.316143
v 1.023058 0.166051 0.000000
v 1.004365 0.338459 0.000000
v 0.955208 0.338459 0.310366
v 0.812549 0.338459 0.590351
v 0.590351 0.338459 0.812549
v 0.310366 0.338459 0.955208
v -0.000000 0.338459 1.004365
v -0.310366 0.338459 0.955208
v -0.590351 0.338459 0.812549
v -0.812549 0.338459 0.590351
v -0.955208 0.338459 0.310366
v -1.004365 0.338459 0.000000
v -0.955208 0.338459 -0.310366
v -0.812549 0.338459 -0.590351
v -0.590351 0.338459 -0.812549
v -0.310366 0.338459 -0.955209
v 0.000000 0.338459 -1.004366
v 0.310366 0.338459 -0.955209
v 0.590351 0.338459 -0.812549
v 0.812549 0.338459 -0.590351
v 0.955209 0.338459 -0.310366
vt 0.713843 0.627567
vt 0.675358 0.703098
vt 0.456159 0.543841
vt 0.615416 0.763040
vt 0.539885 0.801524
vt 0.456159 0.814785
vt 0.372433 0.801524
vt 0.296902 0.763040
vt 0.236960 0.703098
vt 0.198476 0.627567
vt 0.185215 0.543841
vt 0.198476 0.460115
vt 0.236960 0.384584
vt 0.296902 0.324642
vt 0.372433 0.286158
vt 0.456159 0.272897
vt 0.539885 0.286158
vt 0.615416 0.324642
vt 0.675358 0.384584
vt 0.713843 0.460115
vt 0.727103 0.543841
vt 0.824966 0.663674
vt 0.769885 0.771776
vt 0.684094 0.857567
vt 0.575992 0.912648
vt 0.456159 0.931627
vt 0.336326 0.912648
vt 0.228224 0.857567
vt 0.142433 0.771776
vt 0.087352 0.663674
vt 0.068373 0.543841
vt 0.087352 0.424008
vt 0.142433 0.315906
vt 0.228224 0.230115
vt 0.336326 0.175034
vt 0.456159 0.156055
vt 0.575992 0.175034
vt 0.684094 0.230115
vt 0.769885 0.315906
vt 0.824966 0.424008
vt 0.843945 0.543841
vt 0.883237 0.405075
vt 0.905216 0.543841
vt 0.819454 0.279892
vt 0.720108 0.180546
vt 0.594925 0.116763
vt 0.456159 0.094784
vt 0.317393 0.116763
vt 0.192210 0.180546
vt 0.092864 0.279892
vt 0.029081 0.405075
vt 0.007102 0.543841
vt 0.029081 0.682607
vt 0.092864 0.807790
vt 0.192210 0.907135
vt 0.317393 0.970919
vt 0.456159 0.992898
vt 0.594925 0.970919
vt 0.720108 0.907136
vt 0.819454 0.807790
vt 0.883238 0.682607
vt 0.848691 0.101757
vt 0.848691 0.047261
vt 0.881152 0.044612
vt 0.881152 0.100364
vt 0.848691 0.004013
vt 0.881152 0.000366
vt 0.914855 0.046760
vt 0.914855 0.101494
vt 0.848691 0.162167
vt 0.881152 0.162167
vt 0.914855 0.003323
vt 0.914855 0.162167
vt 0.848691 0.222576
vt 0.881152 0.223969
vt 0.914855 0.222839
vt 0.848691 0.277072
vt 0.881152 0.279721
vt 0.914855 0.277573
vt 0.848691 0.320320
vt 0.881152 0.323967
vt 0.914855 0.321010
vt 0.924964 0.785111
vt 0.924964 0.730615
vt 0.957425 0.732008
vt 0.957425 0.787761
vt 0.924964 0.670206
vt 0.957425 0.670206
vt 0.991129 0.730879
vt 0.991129 0.785613
vt 0.924964 0.828360
vt 0.957425 0.832006
vt 0.924964 0.609797
vt 0.957425 0.608404
vt 0.991129 0.670206
vt 0.991129 0.829050
vt 0.924964 0.555301
vt 0.957425 0.552652
vt 0.991129 0.609533
vt 0.924964 0.512053
vt 0.957425 0.508406
vt 0.991129 0.554800
vt 0.991129 0.511363
vt 0.992557 0.258325
vt 0.992557 0.312821
vt 0.960096 0.311428
vt 0.960096 0.255676
vt 0.992557 0.373230
vt 0.960096 0.373230
vt 0.926392 0.312558
vt 0.926392 0.257824
vt 0.992557 0.433640
vt 0.960096 0.435033
vt 0.926392 0.373230
vt 0.992557 0.488136
vt 0.960096 0.490785
vt 0.926392 0.433903
vt 0.926392 0.488637
vt 0.925241 0.237984
vt 0.925241 0.183488
vt 0.957702 0.184881
vt 0.957702 0.240633
vt 0.925241 0.123079
vt 0.957702 0.123079
vt 0.991406 0.183752
vt 0.991406 0.238485
vt 0.925241 0.062670
vt 0.957702 0.061277
vt 0.991406 0.123079
vt 0.925241 0.008174
vt 0.957702 0.005524
vt 0.991406 0.062406
vt 0.991406 0.007672
vn 0.882743 -0.135881 -0.449780
vn 0.882743 -0.135881 -0.449780
vn 0.882743 -0.135881 -0.449780
vn 0.882743 -0.135881 -0.449780
vn 0.700549 -0.135881 -0.700548
vn 0.700549 -0.135881 -0.700548
vn 0.700549 -0.135881 -0.700548
vn 0.700549 -0.135881 -0.700548
vn 0.449780 -0.135881 -0.882743
vn 0.449780 -0.135881 -0.882743
vn 0.449780 -0.135881 -0.882743
vn 0.449780 -0.135881 -0.882743
vn 0.154983 -0.135881 -0.978528
vn 0.154983 -0.135881 -0.978528
vn 0.154983 -0.135881 -0.978528
vn 0.154983 -0.135881 -0.978528
vn -0.154984 -0.135881 -0.978528
vn -0.154984 -0.135881 -0.978528
vn -0.154984 -0.135881 -0.978528
vn -0.154984 -0.135881 -0.978528
vn -0.449780 -0.135881 -0.882742
vn -0.449780 -0.135881 -0.882742
vn -0.449780 -0.135881 -0.882742
vn -0.449780 -0.135881 -0.882742
vn -0.700549 -0.135881 -0.700548
vn -0.700549 -0.135881 -0.700548
vn -0.700549 -0.135881 -0.700548
vn -0.700549 -0.135881 -0.700548
vn -0.882743 -0.135881 -0.449780
vn -0.882743 -0.135881 -0.449780
vn -0.882743 -0.135881 -0.449780
vn -0.882743 -0.135881 -0.449780
vn -0.978528 -0.135882 -0.154983
vn -0.978528 -0.135882 -0.154983
vn -0.978528 -0.135882 -0.154983
vn -0.978528 -0.135882 -0.154983
vn -0.978528 -0.135882 0.154983
vn -0.978528 -0.135882 0.154983
vn -0.978528 -0.135882 0.154983
vn -0.978528 -0.135882 0.154983
vn -0.882742 -0.135882 0.449780
vn -0.882742 -0.135882 0.449780
vn -0.882742 -0.135882 0.449780
vn -0.882742 -0.135882 0.449780
vn -0.700549 -0.135881 0.700548
vn -0.700549 -0.135881 0.700548
vn -0.700549 -0.135881 0.700548
vn -0.700549 -0.135881 0.700548
vn -0.449780 -0.135881 0.882743
vn -0.449780 -0.135881 0.882743
vn -0.449780 -0.135881 0.882743
vn -0.449780 -0.135881 0.882743
vn -0.154983 -0.135881 0.978528
vn -0.154983 -0.135881 0.978528
vn -0.154983 -0.135881 0.978528
vn -0.154983 -0.135881 0.978528
vn 0.154984 -0.135881 0.978528
vn 0.154984 -0.135881 0.978528
vn 0.154984 -0.135881 0.978528
vn 0.154984 -0.135881 0.978528
vn 0.449780 -0.135881 0.882743
vn 0.449780 -0.135881 0.882743
vn 0.449780 -0.135881 0.882743
vn 0.449780 -0.135881 0.882743
vn 0.700548 -0.135881 0.700548
vn 0.700548 -0.135881 0.700548
vn 0.700548 -0.135881 0.700549
vn 0.700548 -0.135881 0.700549
vn 0.882743 -0.135881 0.449780
vn 0.882743 -0.135881 0.449780
vn 0.882743 -0.135881 0.449780
vn 0.882743 -0.135881 0.449780
vn 0.978528 -0.135882 0.154983
vn 0.978528 -0.135882 0.154983
vn 0.978528 -0.135882 0.154983
vn 0.978528 -0.135882 0.154983
vn 0.978528 -0.135881 -0.154982
vn 0.978528 -0.135881 -0.154982
vn 0.978528 -0.135881 -0.154982
vn 0.978528 -0.135881 -0.154982
vn -0.003034 0.999994 0.001546
vn -0.003034 0.999994 0.001546
vn -0.003034 0.999994 0.001546
vn -0.002408 0.999994 0.002408
vn -0.002408 0.999994 0.002408
vn -0.002408 0.999994 0.002408
vn -0.001546 0.999994 0.003034
vn -0.001546 0.999994 0.003034
vn -0.001546 0.999994 0.003034
vn -0.000533 0.999994 0.003364
vn -0.000533 0.999994 0.003364
vn -0.000533 0.999994 0.003364
vn 0.000533 0.999994 0.003364
vn 0.000533 0.999994 0.003364
vn 0.000533 0.999994 0.003364
vn 0.001546 0.999994 0.003034
vn 0.001546 0.999994 0.003034
vn 0.001546 0.999994 0.003034
vn 0.002408 0.999994 0.002408
vn 0.002408 0.999994 0.002408
vn 0.002408 0.999994 0.002408
vn 0.003034 0.999994 0.001546
vn 0.003034 0.999994 0.001546
vn 0.003034 0.999994 0.001546
vn 0.003364 0.999994 0.000533
vn 0.003364 0.999994 0.000533
vn 0.003364 0.999994 0.000533
vn 0.003364 0.999994 -0.000533
vn 0.003364 0.999994 -0.000533
vn 0.003364 0.999994 -0.000533
vn 0.003034 0.999994 -0.001546
vn 0.003034 0.999994 -0.001546
vn 0.003034 0.999994 -0.001546
vn 0.002408 0.999994 -0.002408
vn 0.002408 0.999994 -0.002408
vn 0.002408 0.999994 -0.002408
vn 0.001546 0.999994 -0.003034
vn 0.001546 0.999994 -0.003034
vn 0.001546 0.999994 -0.003034
vn 0.000533 0.999994 -0.003364
vn 0.000533 0.999994 -0.003364
vn 0.000533 0.999994 -0.003364
vn -0.000533 0.999994 -0.003364
vn -0.000533 0.999994 -0.003364
vn -0.000533 0.999994 -0.003364
vn -0.001546 0.999994 -0.003034
vn -0.001546 0.999994 -0.003034
vn -0.001546 0.999994 -0.003034
vn -0.002408 0.999994 -0.002408
vn -0.002408 0.999994 -0.002408
vn -0.002408 0.999994 -0.002408
vn -0.003034 0.999994 -0.001547
vn -0.003034 0.999994 -0.001547
vn -0.003034 0.999994 -0.001547
vn -0.003364 0.999994 -0.000533
vn -0.003364 0.999994 -0.000533
vn -0.003364 0.999994 -0.000533
vn -0.003364 0.999994 0.000533
vn -0.003364 0.999994 0.000533
vn -0.003364 0.999994 0.000533
vn 0.143551 0.986936 -0.073143
vn 0.143551 0.986936 -0.073143
vn 0.143551 0.986936 -0.073143
vn 0.143551 0.986936 -0.073143
vn 0.113922 0.986936 -0.113922
vn 0.113922 0.986936 -0.113922
vn 0.113922 0.986936 -0.113922
vn 0.113922 0.986936 -0.113922
vn 0.073143 0.986936 -0.143551
vn 0.073143 0.986936 -0.143551
vn 0.073143 0.986936 -0.143551
vn 0.073143 0.986936 -0.143550
vn 0.025203 0.986936 -0.159127
vn 0.025203 0.986936 -0.159127
vn 0.025203 0.986936 -0.159127
vn 0.025203 0.986936 -0.159127
vn -0.025203 0.986936 -0.159128
vn -0.025203 0.986936 -0.159128
vn -0.025203 0.986936 -0.159128
vn -0.025203 0.986936 -0.159128
vn -0.073143 0.986936 -0.143551
vn -0.073143 0.986936 -0.143551
vn -0.073143 0.986936 -0.143551
vn -0.073143 0.986936 -0.143551
vn -0.113922 0.986936 -0.113922
vn -0.113922 0.986936 -0.113922
vn -0.113922 0.986936 -0.113922
vn -0.113922 0.986936 -0.113922
vn -0.143551 0.986936 -0.073143
vn -0.143551 0.986936 -0.073143
vn -0.143551 0.986936 -0.073143
vn -0.143551 0.986936 -0.073143
vn -0.159127 0.986936 -0.025203
vn -0.159127 0.986936 -0.025203
vn -0.159127 0.986936 -0.025203
vn -0.159127 0.986936 -0.025203
vn -0.159127 0.986936 0.025203
vn -0.159127 0.986936 0.025203
vn -0.159127 0.986936 0.025203
vn -0.159127 0.986936 0.025203
vn -0.143551 0.986936 0.073143
vn -0.143551 0.986936 0.073143
vn -0.143551 0.986936 0.073143
vn -0.143551 0.986936 0.073143
vn -0.113922 0.986936 0.113922
vn -0.113922 0.986936 0.113922
vn -0.113922 0.986936 0.113922
vn -0.113922 0.986936 0.113922
vn -0.073143 0.986936 0.143551
vn -0.073143 0.986936 0.143551
vn -0.073143 0.986936 0.143551
vn -0.073143 0.986936 0.143551
vn -0.025203 0.986936 0.159127
vn -0.025203 0.986936 0.159127
vn -0.025203 0.986936 0.159127
vn -0.025203 0.986936 0.159127
vn 0.025203 0.986936 0.159127
vn 0.025203 0.986936 0.159127
vn 0.025203 0.986936 0.159127
vn 0.025203 0.986936 0.159127
vn 0.073143 0.986936 0.143551
vn 0.073143 0.986936 0.143551
vn 0.073143 0.986936 0.143551
vn 0.073143 0.986936 0.143551
vn 0.113922 0.986936 0.113922
vn 0.113922 0.986936 0.113922
vn 0.113922 0.986936 0.113922
vn 0.113922 0.986936 0.113922
vn 0.143551 0.986936 0.073143
vn 0.143551 0.986936 0.073143
vn 0.143551 0.986936 0.073143
vn 0.143551 0.986936 0.073143
vn 0.159127 0.986936 0.025203
vn 0.159127 0.986936 0.025203
vn 0.159127 0.986936 0.025203
vn 0.159127 0.986936 0.025203
vn 0.159128 0.986936 -0.025203
vn 0.159128 0.986936 -0.025203
vn 0.159128 0.986936 -0.025203
vn 0.159128 0.986936 -0.025203
vn 0.885941 0.106480 0.451410
vn 0.885941 0.106480 0.451409
vn 0.885941 0.106480 0.451409
vn 0.885941 0.106480 0.451409
vn 0.703087 0.106480 0.703087
vn 0.703087 0.106480 0.703087
vn 0.703087 0.106480 0.703087
vn 0.703087 0.106480 0.703087
vn 0.451410 0.106480 0.885941
vn 0.451410 0.106480 0.885941
vn 0.451410 0.106480 0.885941
vn 0.451410 0.106480 0.885941
vn 0.155545 0.106480 0.982073
vn 0.155545 0.106480 0.982073
vn 0.155545 0.106480 0.982073
vn 0.155545 0.106480 0.982073
vn -0.155545 0.106480 0.982073
vn -0.155545 0.106480 0.982073
vn -0.155545 0.106480 0.982073
vn -0.155545 0.106480 0.982073
vn -0.451410 0.106480 0.885941
vn -0.451410 0.106480 0.885941
vn -0.451410 0.106480 0.885941
vn -0.451410 0.106480 0.885941
vn -0.703087 0.106480 0.703087
vn -0.703087 0.106480 0.703087
vn -0.703087 0.106480 0.703087
vn -0.703087 0.106480 0.703087
vn -0.885941 0.106480 0.451410
vn -0.885941 0.106480 0.451410
vn -0.885941 0.106480 0.451410
vn -0.885941 0.106480 0.451410
vn -0.982073 0.106481 0.155545
vn -0.982073 0.106481 0.155545
vn -0.982073 0.106481 0.155545
vn -0.982073 0.106481 0.155545
vn -0.982073 0.106481 -0.155545
vn -0.982073 0.106481 -0.155545
vn -0.982073 0.106481 -0.155545
vn -0.982073 0.106481 -0.155545
vn -0.885941 0.106480 -0.451409
vn -0.885941 0.106480 -0.451409
vn -0.885941 0.106480 -0.451409
vn -0.885941 0.106480 -0.451409
vn -0.703087 0.106480 -0.703087
vn -0.703087 0.106480 -0.703087
vn -0.703087 0.106480 -0.703087
vn -0.703087 0.106480 -0.703087
vn -0.451410 0.106480 -0.885941
vn -0.451410 0.106480 -0.885941
vn -0.451410 0.106480 -0.885941
vn -0.451410 0.106480 -0.885941
vn -0.155545 0.106480 -0.982073
vn -0.155545 0.106480 -0.982073
vn -0.155545 0.106480 -0.982073
vn -0.155545 0.106480 -0.982073
vn 0.155545 0.106480 -0.982073
vn 0.155545 0.106480 -0.982073
vn 0.155545 0.106480 -0.982073
vn 0.155545 0.106480 -0.982073
vn 0.451409 0.106480 -0.885941
vn 0.451409 0.106480 -0.885941
vn 0.451409 0.106480 -0.885941
vn 0.451409 0.106480 -0.885941
vn 0.703087 0.106480 -0.703087
vn 0.703087 0.106480 -0.703087
vn 0.703087 0.106480 -0.703087
vn 0.703087 0.106480 -0.703087
vn 0.885941 0.106480 -0.451410
vn 0.885941 0.106480 -0.451410
vn 0.885941 0.106480 -0.451410
vn 0.885941 0.106480 -0.451410
vn 0.982073 0.106480 -0.155543
vn 0.982073 0.106480 -0.155543
vn 0.982074 0.106480 -0.155543
vn 0.982073 0.106480 -0.155543
vn 0.982073 0.106481 0.155545
vn 0.982073 0.106481 0.155545
vn 0.982073 0.106481 0.155545
vn 0.982073 0.106481 0.155545
vn 0.281600 0.958495 0.044600
vn 0.281600 0.958495 0.044600
vn 0.281600 0.958495 0.044600
vn 0.281600 0.958495 0.044600
vn 0.254036 0.958495 0.129438
vn 0.254036 0.958495 0.129438
vn 0.254036 0.958495 0.129438
vn 0.254036 0.958495 0.129438
vn 0.201604 0.958495 0.201604
vn 0.201604 0.958494 0.201604
vn 0.201604 0.958495 0.201604
vn 0.201604 0.958495 0.201604
vn 0.129438 0.958495 0.254036
vn 0.129438 0.958495 0.254036
vn 0.129438 0.958495 0.254036
vn 0.129438 0.958495 0.254036
vn 0.044601 0.958495 0.281600
vn 0.044601 0.958495 0.281600
vn 0.044601 0.958495 0.281600
vn 0.044601 0.958495 0.281600
vn -0.044600 0.958495 0.281600
vn -0.044600 0.958495 0.281600
vn -0.044600 0.958495 0.281600
vn -0.044600 0.958495 0.281600
vn -0.129438 0.958495 0.254036
vn -0.129438 0.958495 0.254036
vn -0.129438 0.958495 0.254036
vn -0.129438 0.958495 0.254036
vn -0.201604 0.958495 0.201604
vn -0.201604 0.958494 0.201604
vn -0.201604 0.958494 0.201604
vn -0.201604 0.958495 0.201604
vn -0.254036 0.958495 0.129438
vn -0.254036 0.958495 0.129438
vn -0.254036 0.958495 0.129438
vn -0.254036 0.958495 0.129438
vn -0.281600 0.958495 0.044601
vn -0.281600 0.958495 0.044601
vn -0.281600 0.958495 0.044601
vn -0.281600 0.958495 0.044601
vn -0.281600 0.958495 -0.044601
vn -0.281600 0.958495 -0.044601
vn -0.281600 0.958495 -0.044601
vn -0.281600 0.958495 -0.044601
vn -0.254036 0.958495 -0.129438
vn -0.254036 0.958495 -0.129438
vn -0.254036 0.958495 -0.129438
vn -0.254036 0.958495 -0.129438
vn -0.201604 0.958494 -0.201604
vn -0.201604 0.958494 -0.201604
vn -0.201604 0.958495 -0.201604
vn -0.201604 0.958494 -0.201604
vn -0.129438 0.958495 -0.254036
vn -0.129438 0.958495 -0.254036
vn -0.129438 0.958495 -0.254036
vn -0.129438 0.958495 -0.254036
vn -0.044601 0.958495 -0.281599
vn -0.044601 0.958495 -0.281599
vn -0.044601 0.958495 -0.281600
vn -0.044601 0.958495 -0.281599
vn 0.044600 0.958495 -0.281600
vn 0.044600 0.958495 -0.281600
vn 0.044600 0.958495 -0.281600
vn 0.044600 0.958495 -0.281600
vn 0.129437 0.958495 -0.254036
vn 0.129437 0.958495 -0.254036
vn 0.129437 0.958495 -0.254036
vn 0.129437 0.958495 -0.254036
vn 0.201604 0.958495 -0.201604
vn 0.201604 0.958495 -0.201604
vn 0.201604 0.958495 -0.201604
vn 0.201604 0.958495 -0.201604
vn 0.254035 0.958495 -0.129437
vn 0.254035 0.958495 -0.129437
vn 0.254035 0.958495 -0.129437
vn 0.254035 0.958495 -0.129437
vn 0.281600 0.958495 -0.044600
vn 0.281600 0.958495 -0.044600
vn 0.281600 0.958495 -0.044600
vn 0.281600 0.958495 -0.044600
s off
g pCylinder1
usemtl phong4SG
f 1/62/1 2/63/2 79/64/3 80/65/4
f 2/63/5 3/66/6 78/67/7 79/64/8
f 3/104/9 4/105/10 77/106/11 78/107/12
f 4/105/13 5/108/14 76/109/15 77/106/16
f 5/108/17 6/112/18 75/113/19 76/109/20
f 6/112/21 7/115/22 74/116/23 75/113/24
f 7/91/25 8/83/26 73/86/27 74/92/28
f 8/83/29 9/84/30 72/85/31 73/86/32
f 9/84/33 10/87/34 71/88/35 72/85/36
f 10/87/37 11/93/38 70/94/39 71/88/40
f 11/93/41 12/97/42 69/98/43 70/94/44
f 12/97/45 13/100/46 68/101/47 69/98/48
f 13/119/49 14/120/50 67/121/51 68/122/52
f 14/120/53 15/123/54 66/124/55 67/121/56
f 15/123/57 16/127/58 65/128/59 66/124/60
f 16/127/61 17/130/62 64/131/63 65/128/64
f 17/80/65 18/77/66 63/78/67 64/81/68
f 18/77/69 19/74/70 62/75/71 63/78/72
f 19/74/73 20/70/74 81/71/75 62/75/76
f 20/70/77 1/62/78 80/65/79 81/71/80
f 41/1/81 42/2/82 43/3/83
f 42/2/84 44/4/85 43/3/86
f 44/4/87 45/5/88 43/3/89
f 45/5/90 46/6/91 43/3/92
f 46/6/93 47/7/94 43/3/95
f 47/7/96 48/8/97 43/3/98
f 48/8/99 49/9/100 43/3/101
f 49/9/102 50/10/103 43/3/104
f 50/10/105 51/11/106 43/3/107
f 51/11/108 52/12/109 43/3/110
f 52/12/111 53/13/112 43/3/113
f 53/13/114 54/14/115 43/3/116
f 54/14/117 55/15/118 43/3/119
f 55/15/120 56/16/121 43/3/122
f 56/16/123 57/17/124 43/3/125
f 57/17/126 58/18/127 43/3/128
f 58/18/129 59/19/130 43/3/131
f 59/19/132 60/20/133 43/3/134
f 60/20/135 61/21/136 43/3/137
f 61/21/138 41/1/139 43/3/140
f 21/22/141 22/23/142 42/2/143 41/1/144
f 22/23/145 23/24/146 44/4/147 42/2/148
f 23/24/149 24/25/150 45/5/151 44/4/152
f 24/25/153 25/26/154 46/6/155 45/5/156
f 25/26/157 26/27/158 47/7/159 46/6/160
f 26/27/161 27/28/162 48/8/163 47/7/164
f 27/28/165 28/29/166 49/9/167 48/8/168
f 28/29/169 29/30/170 50/10/171 49/9/172
f 29/30/173 30/31/174 51/11/175 50/10/176
f 30/31/177 31/32/178 52/12/179 51/11/180
f 31/32/181 32/33/182 53/13/183 52/12/184
f 32/33/185 33/34/186 54/14/187 53/13/188
f 33/34/189 34/35/190 55/15/191 54/14/192
f 34/35/193 35/36/194 56/16/195 55/15/196
f 35/36/197 36/37/198 57/17/199 56/16/200
f 36/37/201 37/38/202 58/18/203 57/17/204
f 37/38/205 38/39/206 59/19/207 58/18/208
f 38/39/209 39/40/210 60/20/211 59/19/212
f 39/40/213 40/41/214 61/21/215 60/20/216
f 40/41/217 21/22/218 41/1/219 61/21/220
f 63/78/221 62/75/222 83/76/223 84/79/224
f 64/81/225 63/78/226 84/79/227 85/82/228
f 65/128/229 64/131/230 85/133/231 86/132/232
f 66/124/233 65/128/234 86/132/235 87/129/236
f 67/121/237 66/124/238 87/129/239 88/125/240
f 68/122/241 67/121/242 88/125/243 89/126/244
f 69/98/245 68/101/246 89/103/247 90/102/248
f 70/94/249 69/98/250 90/102/251 91/99/252
f 71/88/253 70/94/254 91/99/255 92/95/256
f 72/85/257 71/88/258 92/95/259 93/89/260
f 73/86/261 72/85/262 93/89/263 94/90/264
f 74/92/265 73/86/266 94/90/267 95/96/268
f 75/113/269 74/116/270 95/118/271 96/117/272
f 76/109/273 75/113/274 96/117/275 97/114/276
f 77/106/277 76/109/278 97/114/279 98/110/280
f 78/107/281 77/106/282 98/110/283 99/111/284
f 79/64/285 78/67/286 99/72/287 100/68/288
f 80/65/289 79/64/290 100/68/291 101/69/292
f 81/71/293 80/65/294 101/69/295 82/73/296
f 62/75/297 81/71/298 82/73/299 83/76/300
f 83/42/301 82/43/302 40/41/303 39/40/304
f 84/44/305 83/42/306 39/40/307 38/39/308
f 85/45/309 84/44/310 38/39/311 37/38/312
f 86/46/313 85/45/314 37/38/315 36/37/316
f 87/47/317 86/46/318 36/37/319 35/36/320
f 88/48/321 87/47/322 35/36/323 34/35/324
f 89/49/325 88/48/326 34/35/327 33/34/328
f 90/50/329 89/49/330 33/34/331 32/33/332
f 91/51/333 90/50/334 32/33/335 31/32/336
f 92/52/337 91/51/338 31/32/339 30/31/340
f 93/53/341 92/52/342 30/31/343 29/30/344
f 94/54/345 93/53/346 29/30/347 28/29/348
f 95/55/349 94/54/350 28/29/351 27/28/352
f 96/56/353 95/55/354 27/28/355 26/27/356
f 97/57/357 96/56/358 26/27/359 25/26/360
f 98/58/361 97/57/362 25/26/363 24/25/364
f 99/59/365 98/58/366 24/25/367 23/24/368
f 100/60/369 99/59/370 23/24/371 22/23/372
f 101/61/373 100/60/374 22/23/375 21/22/376
f 82/43/377 101/61/378 21/22/379 40/41/380
