# This file uses centimeters as units for non-parametric coordinates.

mtllib DPad.mtl
g default
v -0.000000 0.239634 -1.716532
v -0.318556 0.239634 -1.079420
v -0.000000 0.376378 -1.716532
v -0.318556 0.376378 -1.079420
v 0.318556 0.376378 -1.079420
v 0.318556 0.239634 -1.079420
v -0.000000 0.239634 1.760856
v 0.318556 0.239634 1.123744
v -0.000000 0.376378 1.760856
v 0.318556 0.376378 1.123744
v -0.318556 0.376378 1.123744
v -0.318556 0.239634 1.123744
v -1.738694 0.239634 0.022162
v -1.101582 0.239634 0.340718
v -1.738694 0.376378 0.022162
v -1.101582 0.376378 0.340718
v -1.101582 0.376378 -0.296394
v -1.101582 0.239634 -0.296394
v 1.738694 0.239634 0.022162
v 1.101582 0.239634 -0.296394
v 1.738694 0.376378 0.022162
v 1.101582 0.376378 -0.296394
v 1.101582 0.376378 0.340718
v 1.101582 0.239634 0.340718
v -0.500000 -0.266771 0.500000
v 0.500000 -0.266771 0.500000
v -0.500000 0.266771 0.500000
v 0.500000 0.266771 0.500000
v -0.500000 0.266771 -0.500000
v 0.500000 0.266771 -0.500000
v -0.500000 -0.266771 -0.500000
v 0.500000 -0.266771 -0.500000
v -0.500000 0.266771 -1.988275
v 0.500000 0.266771 -1.988275
v 0.500000 -0.266771 -1.988275
v -0.500000 -0.266771 -1.988275
v -1.997850 -0.266771 -0.500000
v -1.997850 -0.266771 0.500000
v -1.997850 0.266771 0.500000
v -1.997850 0.266771 -0.500000
v -0.500000 -0.266771 2.002137
v 0.500000 -0.266771 2.002137
v 0.500000 0.266771 2.002137
v -0.500000 0.266771 2.002137
v 1.982741 -0.266771 -0.500000
v 1.982741 -0.266771 0.500000
v 1.982741 0.266771 -0.500000
v 1.982741 0.266771 0.500000
v -0.479530 0.339381 0.479504
v 0.478902 0.339381 0.479504
v 0.478902 0.339381 -0.478928
v -0.479530 0.339381 -0.478928
v 0.478902 0.339381 -1.905340
v -0.479530 0.339381 -1.905340
v -1.915119 0.339381 -0.478928
v -1.915119 0.339381 0.479504
v -0.479530 0.339381 1.919201
v 0.478902 0.339381 1.919201
v 1.900010 0.339381 0.479504
v 1.900010 0.339381 -0.478928
v -0.337466 0.325384 0.337440
v 0.336838 0.325384 0.337440
v 0.336838 0.325384 -0.336864
v -0.337466 0.325384 -0.336864
vt 0.142884 0.017883
vt 0.625000 0.000000
vt 0.250008 0.374994
vt 0.625000 0.250000
vt 0.625000 0.500000
vt 0.367197 0.742193
vt 0.625000 0.750000
vt 0.625000 1.000000
vt 0.875000 0.000000
vt 0.875000 0.250000
vt 0.142884 0.017883
vt 0.625000 0.000000
vt 0.625000 0.250000
vt 0.250008 0.374994
vt 0.625000 0.500000
vt 0.625000 0.750000
vt 0.367197 0.742193
vt 0.625000 1.000000
vt 0.875000 0.000000
vt 0.875000 0.250000
vt 0.142884 0.017883
vt 0.625000 0.000000
vt 0.625000 0.250000
vt 0.250008 0.374994
vt 0.625000 0.500000
vt 0.625000 0.750000
vt 0.367197 0.742193
vt 0.625000 1.000000
vt 0.875000 0.000000
vt 0.875000 0.250000
vt 0.142884 0.017883
vt 0.625000 0.000000
vt 0.625000 0.250000
vt 0.250008 0.374994
vt 0.625000 0.500000
vt 0.625000 0.750000
vt 0.367197 0.742193
vt 0.625000 1.000000
vt 0.875000 0.000000
vt 0.875000 0.250000
vt 0.375000 0.000000
vt 0.625000 0.000000
vt 0.625000 0.250000
vt 0.375000 0.250000
vt 0.375000 0.250000
vt 0.625000 0.250000
vt 0.625000 0.500000
vt 0.375000 0.500000
vt 0.375000 0.500000
vt 0.625000 0.500000
vt 0.625000 0.750000
vt 0.375000 0.750000
vt 0.375000 0.750000
vt 0.625000 0.750000
vt 0.625000 1.000000
vt 0.375000 1.000000
vt 0.625000 0.000000
vt 0.875000 0.000000
vt 0.875000 0.250000
vt 0.625000 0.250000
vt 0.125000 0.000000
vt 0.375000 0.000000
vt 0.375000 0.250000
vt 0.125000 0.250000
vt 0.375000 0.500000
vt 0.625000 0.500000
vt 0.625000 0.500000
vt 0.375000 0.500000
vt 0.125000 0.000000
vt 0.375000 0.000000
vt 0.375000 0.250000
vt 0.125000 0.250000
vt 0.125000 0.250000
vt 0.375000 0.250000
vt 0.125000 0.250000
vt 0.625000 0.000000
vt 0.625000 0.250000
vt 0.375000 0.250000
vt 0.625000 0.250000
vt 0.875000 0.000000
vt 0.875000 0.250000
vt 0.875000 0.250000
vt 0.625000 0.250000
vt 0.875000 0.250000
vt 0.375000 0.250000
vt 0.625000 0.250000
vt 0.625000 0.500000
vt 0.375000 0.500000
vn -0.894427 0.000000 -0.447214
vn -0.894427 0.000000 -0.447214
vn -0.894427 0.000000 -0.447214
vn -0.894427 0.000000 -0.447214
vn 0.000000 1.000000 0.000000
vn 0.000000 1.000000 0.000000
vn 0.000000 1.000000 0.000000
vn 0.894427 0.000000 -0.447214
vn 0.894427 0.000000 -0.447214
vn 0.894427 0.000000 -0.447214
vn 0.894427 0.000000 -0.447214
vn 0.000000 -1.000000 0.000000
vn 0.000000 -1.000000 0.000000
vn 0.000000 -1.000000 0.000000
vn 0.000000 0.000000 1.000000
vn 0.000000 0.000000 1.000000
vn 0.000000 0.000000 1.000000
vn 0.000000 0.000000 1.000000
vn 0.894427 0.000000 0.447214
vn 0.894427 0.000000 0.447214
vn 0.894427 0.000000 0.447214
vn 0.894427 0.000000 0.447214
vn 0.000000 1.000000 0.000000
vn 0.000000 1.000000 0.000000
vn 0.000000 1.000000 0.000000
vn -0.894427 0.000000 0.447214
vn -0.894427 0.000000 0.447214
vn -0.894427 0.000000 0.447214
vn -0.894427 0.000000 0.447214
vn 0.000000 -1.000000 0.000000
vn 0.000000 -1.000000 0.000000
vn 0.000000 -1.000000 0.000000
vn 0.000000 0.000000 -1.000000
vn 0.000000 0.000000 -1.000000
vn 0.000000 0.000000 -1.000000
vn 0.000000 0.000000 -1.000000
vn -0.447214 0.000000 0.894427
vn -0.447214 0.000000 0.894427
vn -0.447214 0.000000 0.894427
vn -0.447214 0.000000 0.894427
vn 0.000000 1.000000 0.000000
vn 0.000000 1.000000 0.000000
vn 0.000000 1.000000 0.000000
vn -0.447214 0.000000 -0.894427
vn -0.447214 0.000000 -0.894427
vn -0.447214 0.000000 -0.894427
vn -0.447214 0.000000 -0.894427
vn 0.000000 -1.000000 0.000000
vn 0.000000 -1.000000 0.000000
vn 0.000000 -1.000000 0.000000
vn 1.000000 0.000000 0.000000
vn 1.000000 0.000000 0.000000
vn 1.000000 0.000000 0.000000
vn 1.000000 0.000000 0.000000
vn 0.447214 0.000000 -0.894427
vn 0.447214 0.000000 -0.894427
vn 0.447214 0.000000 -0.894427
vn 0.447214 0.000000 -0.894427
vn 0.000000 1.000000 0.000000
vn 0.000000 1.000000 0.000000
vn 0.000000 1.000000 0.000000
vn 0.447214 0.000000 0.894427
vn 0.447214 0.000000 0.894427
vn 0.447214 0.000000 0.894427
vn 0.447214 0.000000 0.894427
vn 0.000000 -1.000000 0.000000
vn 0.000000 -1.000000 0.000000
vn 0.000000 -1.000000 0.000000
vn -1.000000 0.000000 0.000000
vn -1.000000 0.000000 0.000000
vn -1.000000 0.000000 0.000000
vn -1.000000 0.000000 0.000000
vn 0.000000 0.000000 1.000000
vn 0.000000 0.000000 1.000000
vn 0.000000 0.000000 1.000000
vn 0.000000 0.000000 1.000000
vn 0.000000 1.000000 0.000000
vn 0.000000 1.000000 0.000000
vn 0.000000 1.000000 0.000000
vn 0.000000 1.000000 0.000000
vn 0.000000 0.000000 -1.000000
vn 0.000000 0.000000 -1.000000
vn 0.000000 0.000000 -1.000000
vn 0.000000 0.000000 -1.000000
vn 0.000000 -1.000000 0.000000
vn 0.000000 -1.000000 0.000000
vn 0.000000 -1.000000 0.000000
vn 0.000000 -1.000000 0.000000
vn 1.000000 0.000000 0.000000
vn 1.000000 0.000000 0.000000
vn 1.000000 0.000000 0.000000
vn 1.000000 0.000000 0.000000
vn -1.000000 0.000000 0.000000
vn -1.000000 0.000000 0.000000
vn -1.000000 0.000000 0.000000
vn -1.000000 0.000000 0.000000
vn 0.000000 1.000000 -0.000000
vn 0.000000 1.000000 -0.000000
vn 0.000000 1.000000 -0.000000
vn 0.000000 1.000000 -0.000000
vn 1.000000 0.000000 0.000000
vn 1.000000 0.000000 0.000000
vn 1.000000 0.000000 0.000000
vn 1.000000 0.000000 0.000000
vn 0.000000 -1.000000 -0.000000
vn 0.000000 -1.000000 -0.000000
vn 0.000000 -1.000000 -0.000000
vn 0.000000 -1.000000 -0.000000
vn -1.000000 0.000000 0.000000
vn -1.000000 0.000000 0.000000
vn -1.000000 0.000000 0.000000
vn -1.000000 0.000000 0.000000
vn 0.000000 -1.000000 0.000000
vn 0.000000 -1.000000 0.000000
vn 0.000000 -1.000000 0.000000
vn 0.000000 -1.000000 0.000000
vn 0.000000 0.000000 1.000000
vn 0.000000 0.000000 1.000000
vn 0.000000 0.000000 1.000000
vn 0.000000 0.000000 1.000000
vn 0.000000 1.000000 0.000000
vn 0.000000 1.000000 0.000000
vn 0.000000 1.000000 0.000000
vn 0.000000 1.000000 0.000000
vn 0.000000 0.000000 -1.000000
vn 0.000000 0.000000 -1.000000
vn 0.000000 0.000000 -1.000000
vn 0.000000 0.000000 -1.000000
vn 0.000000 -1.000000 0.000000
vn 0.000000 -1.000000 0.000000
vn 0.000000 -1.000000 0.000000
vn 0.000000 -1.000000 0.000000
vn 1.000000 0.000000 0.000000
vn 1.000000 0.000000 0.000000
vn 1.000000 0.000000 0.000000
vn 1.000000 0.000000 0.000000
vn 0.000000 1.000000 0.000000
vn 0.000000 1.000000 0.000000
vn 0.000000 1.000000 0.000000
vn 0.000000 1.000000 0.000000
vn -1.000000 0.000000 0.000000
vn -1.000000 0.000000 0.000000
vn -1.000000 0.000000 0.000000
vn -1.000000 0.000000 0.000000
vn 0.000000 -1.000000 0.000000
vn 0.000000 -1.000000 0.000000
vn 0.000000 -1.000000 0.000000
vn 0.000000 -1.000000 0.000000
vn 0.000000 0.000000 -1.000000
vn 0.000000 0.000000 -1.000000
vn 0.000000 0.000000 -1.000000
vn 0.000000 0.000000 -1.000000
vn 0.000000 1.000000 0.000000
vn 0.000000 1.000000 0.000000
vn 0.000000 1.000000 0.000000
vn 0.000000 1.000000 0.000000
vn 0.000000 0.000000 1.000000
vn 0.000000 0.000000 1.000000
vn 0.000000 0.000000 1.000000
vn 0.000000 0.000000 1.000000
vn 0.960285 0.279020 0.000000
vn 0.960285 0.279020 0.000000
vn 0.960285 0.279020 0.000000
vn 0.960285 0.279020 0.000000
vn 0.000000 0.752388 -0.658720
vn 0.000000 0.752388 -0.658720
vn 0.000000 0.752388 -0.658720
vn 0.000000 0.752388 -0.658720
vn -0.962485 0.271335 0.000000
vn -0.962485 0.271335 0.000000
vn -0.962485 0.271335 0.000000
vn -0.962485 0.271335 0.000000
vn 0.000000 0.278705 -0.960377
vn 0.000000 0.278705 -0.960377
vn 0.000000 0.278705 -0.960377
vn 0.000000 0.278705 -0.960377
vn -0.659638 0.751584 0.000000
vn -0.659638 0.751584 0.000000
vn -0.659638 0.751584 0.000000
vn -0.659638 0.751584 0.000000
vn 0.000000 0.271653 0.962395
vn 0.000000 0.271653 0.962395
vn 0.000000 0.271654 0.962395
vn 0.000000 0.271653 0.962395
vn -0.962485 0.271335 0.000000
vn -0.962485 0.271335 0.000000
vn -0.962485 0.271335 0.000000
vn -0.962485 0.271335 0.000000
vn 0.000000 0.752389 0.658720
vn 0.000000 0.752389 0.658720
vn 0.000000 0.752389 0.658720
vn 0.000000 0.752389 0.658720
vn 0.960285 0.279021 0.000000
vn 0.960285 0.279021 0.000000
vn 0.960285 0.279021 0.000000
vn 0.960285 0.279021 0.000000
vn 0.000000 0.271654 0.962395
vn 0.000000 0.271654 0.962395
vn 0.000000 0.271654 0.962395
vn 0.000000 0.271654 0.962395
vn 0.659638 0.751583 0.000000
vn 0.659638 0.751583 0.000000
vn 0.659638 0.751583 0.000000
vn 0.659638 0.751583 0.000000
vn 0.000000 0.278705 -0.960377
vn 0.000000 0.278705 -0.960377
vn 0.000000 0.278705 -0.960377
vn 0.000000 0.278705 -0.960377
vn 0.000000 0.995181 -0.098055
vn 0.000000 0.995181 -0.098055
vn 0.000000 0.995181 -0.098055
vn 0.000000 0.995181 -0.098055
vn -0.098055 0.995181 0.000000
vn -0.098055 0.995181 0.000000
vn -0.098055 0.995181 0.000000
vn -0.098055 0.995181 0.000000
vn 0.000000 0.995181 0.098055
vn 0.000000 0.995181 0.098055
vn 0.000000 0.995181 0.098055
vn 0.000000 0.995181 0.098055
vn 0.098055 0.995181 0.000000
vn 0.098055 0.995181 0.000000
vn 0.098055 0.995181 0.000000
vn 0.098055 0.995181 0.000000
s off
g pCube4
usemtl phong2SG
f 1/1/1 2/2/2 4/4/3 3/3/4
f 3/3/5 4/4/6 5/5/7
f 3/3/8 5/5/9 6/7/10 1/6/11
f 1/6/12 6/7/13 2/8/14
f 2/2/15 6/9/16 5/10/17 4/4/18
f 7/11/19 8/12/20 10/13/21 9/14/22
f 9/14/23 10/13/24 11/15/25
f 9/14/26 11/15/27 12/16/28 7/17/29
f 7/17/30 12/16/31 8/18/32
f 8/12/33 12/19/34 11/20/35 10/13/36
f 13/21/37 14/22/38 16/23/39 15/24/40
f 15/24/41 16/23/42 17/25/43
f 15/24/44 17/25/45 18/26/46 13/27/47
f 13/27/48 18/26/49 14/28/50
f 14/22/51 18/29/52 17/30/53 16/23/54
f 19/31/55 20/32/56 22/33/57 21/34/58
f 21/34/59 22/33/60 23/35/61
f 21/34/62 23/35/63 24/36/64 19/37/65
f 19/37/66 24/36/67 20/38/68
f 20/32/69 24/39/70 23/40/71 22/33/72
usemtl phong3SG
f 41/41/73 42/42/74 43/43/75 44/44/76
f 61/85/77 62/86/78 63/87/79 64/88/80
f 33/49/81 34/50/82 35/51/83 36/52/84
f 31/53/85 32/54/86 26/55/87 25/56/88
f 46/57/89 45/58/90 47/59/91 48/60/92
f 37/61/93 38/62/94 39/63/95 40/64/96
f 52/65/97 51/66/98 53/67/99 54/68/100
f 30/47/101 32/54/102 35/51/103 34/50/104
f 32/54/105 31/53/106 36/52/107 35/51/108
f 31/53/109 29/48/110 33/49/111 36/52/112
f 31/69/113 25/70/114 38/62/115 37/61/116
f 25/70/117 27/45/118 39/63/119 38/62/120
f 49/71/121 52/72/122 55/73/123 56/74/124
f 29/75/125 31/69/126 37/61/127 40/64/128
f 25/70/129 26/76/130 42/42/131 41/41/132
f 26/76/133 28/46/134 43/43/135 42/42/136
f 50/77/137 49/71/138 57/78/139 58/79/140
f 27/45/141 25/70/142 41/41/143 44/44/144
f 26/76/145 32/80/146 45/58/147 46/57/148
f 32/80/149 30/81/150 47/59/151 45/58/152
f 51/82/153 50/77/154 59/83/155 60/84/156
f 28/46/157 26/76/158 46/57/159 48/60/160
f 30/47/161 34/50/162 53/67/163 51/66/164
f 34/50/165 33/49/166 54/68/167 53/67/168
f 33/49/169 29/48/170 52/65/171 54/68/172
f 29/75/173 40/64/174 55/73/175 52/72/176
f 40/64/177 39/63/178 56/74/179 55/73/180
f 39/63/181 27/45/182 49/71/183 56/74/184
f 27/45/185 44/44/186 57/78/187 49/71/188
f 44/44/189 43/43/190 58/79/191 57/78/192
f 43/43/193 28/46/194 50/77/195 58/79/196
f 28/46/197 48/60/198 59/83/199 50/77/200
f 48/60/201 47/59/202 60/84/203 59/83/204
f 47/59/205 30/81/206 51/82/207 60/84/208
f 49/45/209 50/46/210 62/86/211 61/85/212
f 50/46/213 51/47/214 63/87/215 62/86/216
f 51/47/217 52/48/218 64/88/219 63/87/220
f 52/48/221 49/45/222 61/85/223 64/88/224
